<svg width="24" height="24" viewBox="0 0 24 24" fill="none" xmlns="http://www.w3.org/2000/svg">
<path d="M10.0014 22.9272C5.73534 22.1171 2.26783 18.8448 1.22792 14.6477C0.846137 13.1068 0.842984 10.8855 1.22045 9.37015C2.22592 5.33332 5.35293 2.20739 9.37813 1.21527C10.9039 0.83921 13.1283 0.840494 14.6557 1.21854C18.5604 2.1844 21.7238 5.32497 22.7682 9.27266C23.1268 10.6281 23.16 13.2043 22.8357 14.5032C21.8192 18.574 18.7427 21.7112 14.742 22.7566C13.4775 23.087 11.2622 23.1668 10.0014 22.9274L10.0014 22.9272ZM14.4205 21.8723C16.3446 21.4314 17.9449 20.5014 19.3808 18.9898C23.1363 15.0362 23.1363 8.94576 19.3808 4.99218C17.38 2.88583 14.9362 1.84343 11.9989 1.84343C9.797 1.84343 7.57679 2.54498 6.02564 3.7309C5.41624 4.19681 4.09047 5.46128 4.09047 5.57659C4.09047 5.621 4.30177 5.69112 4.56002 5.73241C5.37515 5.86276 6.50509 6.51892 7.17312 7.24985C7.51656 7.62564 7.79756 8.02129 7.79756 8.12909C7.79756 8.23689 7.83287 8.28979 7.87598 8.24666C7.91914 8.20351 7.8871 8.00572 7.8048 7.80708C7.61755 7.35503 7.54938 6.78582 7.69313 6.87466C7.86664 6.98189 8.29184 7.88156 8.29184 8.14145C8.29184 8.31565 8.53681 8.13458 9.20466 7.46673C10.0548 6.61661 10.3925 6.38969 10.3925 6.66865C10.3925 6.73176 10.3127 6.86322 10.2151 6.9608C10.0776 7.09828 10.0707 7.17389 10.1842 7.29674C10.3002 7.4222 10.2856 7.4394 10.1145 7.37918C9.97714 7.33085 9.89823 7.36447 9.89823 7.47134C9.89823 7.56388 9.81129 7.67296 9.70504 7.71373C9.59879 7.75451 9.54646 7.84386 9.58876 7.9123C9.63108 7.98075 9.61053 8.03675 9.54313 8.03675C9.47574 8.03675 9.38433 8.15102 9.34 8.29069C9.29568 8.43035 9.19658 8.52369 9.11979 8.49809C8.99489 8.45643 8.41539 9.02458 8.41539 9.18865C8.41539 9.2249 8.73769 9.08832 9.1316 8.88516C10.5595 8.14873 12.7859 8.33183 13.8525 9.2734C14.1147 9.5049 14.1787 9.6042 14.015 9.52562C13.6287 9.34013 13.5509 9.36486 13.7425 9.61226C13.902 9.81821 13.8979 9.81821 13.6552 9.61226C13.3193 9.32711 13.235 9.33944 13.2327 9.67405C13.2313 9.88546 13.2044 9.91026 13.1204 9.77758C13.0338 9.64085 13.0008 9.66151 12.9678 9.87303L12.9257 10.143L12.4623 9.82682C11.9992 9.51091 11.9989 9.51087 11.9989 9.78143C11.9989 10.0406 11.9887 10.043 11.7617 9.8375C11.5345 9.63188 11.5228 9.63498 11.4837 9.91103C11.4463 10.1745 11.4163 10.1567 11.1339 9.70495C10.8516 9.25326 10.8215 9.23549 10.7842 9.49875C10.7463 9.76619 10.7319 9.77119 10.5836 9.56833C10.4347 9.36466 10.4175 9.36961 10.3313 9.64142L10.2387 9.93303L10.0728 9.63363C9.93928 9.39255 9.90612 9.37778 9.90259 9.55777C9.89979 9.70395 9.84506 9.74846 9.74462 9.68639C9.66015 9.63419 9.36821 9.57492 9.09588 9.55468L8.60073 9.51788L9.24984 9.82213C10.1592 10.2484 11.0099 11.1466 11.5435 12.244C12.1448 13.4806 12.2106 13.7853 11.882 13.81C11.7372 13.821 11.6282 13.7545 11.6282 13.6554C11.6282 13.5461 11.554 13.51 11.4285 13.5582C11.2598 13.6229 11.2502 13.5947 11.3667 13.3771C11.5702 12.9968 11.5367 12.943 11.23 13.1579C10.8304 13.4378 10.7289 13.3939 10.9599 13.0413C11.1545 12.7443 11.1519 12.7324 10.8927 12.7324C10.6792 12.7324 10.6393 12.6809 10.7014 12.4853C10.7661 12.2813 10.7236 12.2381 10.4583 12.2381C10.1688 12.2381 10.1507 12.2119 10.2769 11.9761C10.3876 11.7692 10.3841 11.7345 10.2602 11.811C10.1531 11.8772 10.1255 11.8501 10.1733 11.7256C10.2283 11.5824 10.1598 11.5551 9.85449 11.5986L9.4657 11.6539L9.7011 11.3899C9.90904 11.1568 9.91264 11.126 9.73197 11.126C9.61949 11.126 9.52746 11.0393 9.52746 10.9333C9.52746 10.8274 9.47186 10.7751 9.4039 10.8171C9.33396 10.8603 9.28032 10.7579 9.28032 10.5811C9.28032 10.3542 9.2296 10.2882 9.09497 10.3399C8.99303 10.379 8.90961 10.3462 8.90961 10.2669C8.90961 10.1877 8.85499 10.1566 8.78823 10.1979C8.71744 10.2416 8.79103 10.4636 8.96533 10.7303C9.31075 11.2597 9.68567 12.6098 9.61942 13.0858L9.57402 13.412L9.38805 13.0084C9.28576 12.7864 9.16576 12.641 9.12138 12.6854C9.07701 12.7298 9.06222 12.5959 9.08854 12.3879C9.11998 12.1394 9.07589 11.9864 8.96009 11.9419C8.86311 11.9047 8.79087 11.831 8.79955 11.7782C8.80823 11.7253 8.80188 11.6404 8.78526 11.5894C8.76872 11.5384 8.74126 11.4411 8.72429 11.3731C8.70729 11.3052 8.6795 11.2217 8.6625 11.1878C8.6455 11.1538 8.61972 11.0843 8.60519 11.0333C8.59066 10.9823 8.51321 10.8016 8.43308 10.6317C8.31555 10.3825 8.30123 10.5854 8.35899 11.6821C8.43051 13.0397 8.69816 14.6747 8.87686 14.8456C8.99645 14.9599 11.0138 14.4507 11.7517 14.12C13.106 13.513 14.6743 12.9491 15.4953 12.7741C17.1692 12.4172 19.4885 12.7917 20.9654 13.6572C21.4975 13.969 21.5339 14.0218 21.4625 14.3786C21.355 14.9163 21.2183 15.0117 20.8762 14.7875C19.9693 14.1933 17.8461 13.8795 16.1546 14.0897C15.5703 14.1623 14.9662 14.2749 14.8122 14.34C14.6064 14.4269 14.6632 14.4346 15.0263 14.369C16.8884 14.0323 19.2457 14.5786 20.5058 15.6389C20.8887 15.9611 20.8905 15.968 20.6914 16.3563C20.5809 16.572 20.3279 16.986 20.1293 17.2763L19.7681 17.8042L19.1272 17.2374C18.7747 16.9257 17.9858 16.4283 17.3742 16.1321C15.8749 15.4061 14.6707 15.1519 12.7403 15.1537C11.3399 15.1551 9.56667 15.3572 9.19727 15.5577C8.98729 15.6716 9.69408 17.1333 10.6439 18.5495C11.6312 20.0216 12.1855 20.6929 12.7722 21.1275L13.2367 21.4716L12.5475 21.5526C12.1685 21.5971 11.8028 21.5992 11.7348 21.5572C11.6669 21.5152 11.272 21.0555 10.8573 20.5357C10.109 19.5976 9.15494 17.772 8.72657 16.4584C8.47557 15.6887 8.65902 15.7012 6.399 16.2999C4.67109 16.7575 3.66987 16.8082 3.47692 16.4477C3.40656 16.3162 3.3489 16.1911 3.34878 16.1696C3.34865 16.1481 3.69066 16.1499 4.1088 16.1734C4.52694 16.1969 5.18041 16.1715 5.56097 16.1173C6.24175 16.0201 6.232 16.0172 4.95541 15.9356C3.1847 15.8224 3.06455 15.753 2.7561 14.6652C2.61849 14.1798 2.47733 13.6536 2.4424 13.4957C2.38157 13.2208 2.39017 13.2171 2.64771 13.407C3.74032 14.2128 6.03456 14.9566 7.42751 14.9566H8.25367L8.07336 14.0608C7.9742 13.568 7.88564 12.5115 7.87658 11.7129C7.85944 10.2035 7.78011 10.0136 7.34736 10.4463C7.24542 10.5483 7.20059 10.6317 7.24775 10.6317C7.29491 10.6317 7.26629 10.7127 7.18415 10.8116C7.10202 10.9106 7.07069 11.0496 7.11453 11.1206C7.15839 11.1915 7.1108 11.2495 7.0087 11.2495C6.88966 11.2495 6.84021 11.3381 6.87074 11.4967C6.9018 11.658 6.85183 11.7438 6.72685 11.7438C6.60742 11.7438 6.56213 11.8136 6.6065 11.9292C6.64937 12.041 6.60697 12.1145 6.50003 12.1145C6.38515 12.1145 6.35029 12.1871 6.40134 12.3201C6.45439 12.4584 6.43286 12.4965 6.33567 12.4364C6.24805 12.3823 6.19111 12.4258 6.19111 12.547C6.19111 12.657 6.14025 12.7155 6.07809 12.6771C6.01593 12.6387 5.94014 12.6771 5.90965 12.7625C5.87915 12.8479 5.81496 12.8814 5.76696 12.8371C5.58813 12.6718 6.02037 11.6567 6.59043 10.9032C6.91451 10.4748 7.17966 10.0998 7.17966 10.0699C7.17966 9.90163 6.62729 10.136 6.5578 10.3338C6.48203 10.5494 6.46654 10.5439 6.37963 10.2705L6.28446 9.9711L6.12932 10.261L5.97418 10.5508L5.87549 10.2515L5.77679 9.95206L5.68734 10.261L5.59789 10.5699L5.58369 10.261C5.57235 10.0144 5.5453 9.98949 5.4497 10.1374C5.38382 10.2394 5.32906 10.4724 5.32802 10.6553C5.32569 11.069 5.12403 11.2154 5.01777 10.8806C4.91462 10.5556 4.77801 10.5654 4.61196 10.9097C4.5052 11.1311 4.47616 11.1437 4.4695 10.9715C4.45694 10.6463 4.26792 10.7096 3.9154 11.1569C3.60156 11.5551 3.59885 11.5559 3.59359 11.2495C3.58845 10.9512 3.58206 10.9488 3.40687 11.1805C3.24867 11.3896 3.22544 11.3936 3.22544 11.2114C3.22544 10.9394 3.02493 10.9434 2.86463 11.2186C2.75385 11.4088 2.73823 11.3991 2.73492 11.1377C2.73119 10.8427 2.72918 10.8422 2.46066 11.0759C2.19629 11.306 2.19662 11.302 2.47533 10.901C2.63216 10.6753 3.12923 10.2468 3.57993 9.94877C4.51642 9.32956 5.49313 9.10551 6.70413 9.23208C7.3409 9.29864 7.42683 9.28168 7.42683 9.08953C7.42683 8.91874 7.39007 8.90195 7.25732 9.01212C7.12157 9.12477 7.07303 9.07891 7.01362 8.78187C6.94577 8.44265 6.91242 8.42119 6.62366 8.53097C6.33603 8.64033 6.31921 8.6299 6.43487 8.41379C6.62319 8.06191 6.5921 8.01228 6.28381 8.17272C6.01137 8.31449 6.0118 8.31085 6.30534 7.99171C6.4701 7.81258 6.58132 7.6666 6.55248 7.66734C6.52362 7.66828 6.22738 7.7514 5.89412 7.8525L5.2882 8.03632L5.52341 7.77257L5.75863 7.50884L5.35728 7.56599C4.9836 7.61919 4.96925 7.60839 5.14912 7.40965C5.3285 7.21143 5.30641 7.19012 4.83994 7.11131C4.27288 7.01551 4.25121 6.97969 4.55383 6.63831C4.76495 6.40013 4.76276 6.39812 4.46115 6.55387L4.15222 6.7134L4.38762 6.44829L4.62302 6.18317H4.20954C3.81945 6.18317 3.80963 6.1729 4.03593 6.00175C4.24182 5.84602 4.24673 5.81976 4.07063 5.81639C3.82651 5.81172 3.00327 7.07043 2.56868 8.11287C1.56697 10.5156 1.60545 13.7273 2.66451 16.111C3.89142 18.8724 6.46931 21.0837 9.32992 21.8285C11.0443 22.2749 12.6052 22.2883 14.4205 21.8723L14.4205 21.8723ZM15.2411 19.0962C15.2733 18.6055 15.27 18.6015 14.7793 18.5402C14.2424 18.4731 14.2972 18.3725 14.9466 18.2331C15.3251 18.1519 15.3549 18.113 15.2895 17.7861C15.2048 17.3624 15.369 17.3198 15.6332 17.6969C15.7977 17.9318 15.8617 17.9474 16.1403 17.8205C16.6513 17.5876 16.7602 17.6512 16.4381 17.9945L16.1385 18.3138L16.4926 18.6187C16.9361 19.0006 16.8476 19.1058 16.2613 18.8938C15.8738 18.7537 15.7945 18.7565 15.7044 18.9133C15.6467 19.014 15.5114 19.2075 15.404 19.3434C15.218 19.5786 15.2102 19.5667 15.2411 19.0963V19.0962ZM16.4529 9.4475C16.4501 9.16998 16.4128 8.90826 16.3704 8.86589C16.328 8.82353 16.0976 8.93817 15.8584 9.12066L15.4234 9.45245L15.6354 9.04236C15.9618 8.41114 15.834 8.24969 15.1883 8.47753L14.6599 8.66392L15.0793 8.23127L15.4986 7.79861L15.1618 7.67053C14.9765 7.6001 14.7035 7.53819 14.555 7.53297C14.3818 7.5269 14.4587 7.47107 14.7694 7.37733C15.3999 7.18707 15.449 6.99025 14.9428 6.68163L14.5321 6.43127L15.0573 6.43081C15.432 6.43048 15.5825 6.37931 15.5825 6.25228C15.5825 6.15435 15.5271 6.04004 15.4595 5.99826C15.392 5.9565 15.277 5.81081 15.2041 5.67455C15.0755 5.43438 15.0829 5.4327 15.4444 5.61964C16.034 5.92453 16.118 5.87764 16.0393 5.28733L15.9693 4.76215L16.3133 5.1826C16.6784 5.62892 16.9404 5.61806 16.9436 5.15644C16.9445 5.00753 16.9994 4.80229 17.0653 4.70035C17.1598 4.55408 17.1855 4.58167 17.187 4.8312C17.1879 5.00511 17.2628 5.24844 17.3531 5.37195C17.5069 5.58235 17.5386 5.57021 17.8558 5.17932L18.1943 4.76213L18.1132 5.28731C18.0211 5.88385 18.19 5.97187 18.7378 5.6129C19.0726 5.39357 19.1425 5.4965 18.8668 5.80275C18.5182 6.18999 18.583 6.36153 19.1042 6.4314L19.5985 6.49766L19.1827 6.72166C18.7116 6.97541 18.7793 7.14044 19.4477 7.36753L19.8421 7.50154L19.3187 7.58525C18.6807 7.68727 18.6462 7.90019 19.1969 8.33842L19.5985 8.65802L19.0815 8.47931C18.446 8.25965 18.2246 8.41854 18.4922 8.90209C18.7658 9.39655 18.699 9.46837 18.311 9.0967C17.8641 8.66855 17.685 8.76386 17.6768 9.43419L17.6704 9.95206L17.4782 9.48868C17.3725 9.23382 17.2099 9.02529 17.1168 9.02529C17.0238 9.02529 16.8376 9.23382 16.703 9.48868L16.4584 9.95206L16.4529 9.44749L16.4529 9.4475ZM9.54592 5.48142C9.67288 5.32845 9.60108 5.20805 9.11876 4.7652C8.79988 4.47242 8.53898 4.16982 8.53898 4.09274C8.53898 3.88624 9.14639 4.23161 9.5736 4.68104C9.80251 4.92185 10.1097 5.08611 10.4386 5.14354L10.9486 5.23261L10.5779 5.34608C10.374 5.40849 10.0241 5.50586 9.80025 5.56243C9.44779 5.65154 9.41374 5.64069 9.54592 5.48142ZM11.5058 3.89581C11.6098 3.77053 11.5393 3.6514 11.2022 3.38242C10.9608 3.18978 10.7632 2.99047 10.7632 2.93949C10.7632 2.75942 10.9961 2.85081 11.3931 3.18664C11.614 3.37354 11.9372 3.58587 12.1114 3.65848C12.4225 3.78818 12.4187 3.79285 11.8992 3.92473C11.4643 4.03512 11.3944 4.02998 11.5058 3.89581Z" fill="white"/>
</svg>
