<svg width="180" height="180" viewBox="0 0 180 180" fill="none" xmlns="http://www.w3.org/2000/svg">
<path d="M73.8444 178.328C39.3607 171.78 11.3317 145.329 2.92576 111.402C-0.160353 98.9469 -0.185836 80.9915 2.86536 68.7421C10.9929 36.111 36.2696 10.8431 68.8066 2.82345C81.1396 -0.216375 99.1202 -0.205999 111.467 2.84984C143.03 10.6573 168.6 36.0435 177.043 67.954C179.942 78.9101 180.21 99.7346 177.589 110.234C169.372 143.14 144.503 168.499 112.165 176.949C101.943 179.62 84.0358 180.265 73.8446 178.33L73.8444 178.328ZM109.566 169.801C125.119 166.237 138.055 158.72 149.662 146.501C180.019 114.543 180.019 65.3116 149.662 33.3535C133.488 16.3271 113.734 7.9011 89.9914 7.9011C72.1925 7.9011 54.2458 13.572 41.7073 23.1581C36.7813 26.9242 26.0647 37.1454 26.0647 38.0774C26.0647 38.4364 27.7727 39.0032 29.8602 39.337C36.4492 40.3906 45.5828 45.6946 50.9827 51.603C53.7589 54.6406 56.0303 57.8388 56.0303 58.7101C56.0303 59.5815 56.3157 60.0091 56.6642 59.6605C57.0131 59.3117 56.7541 57.7129 56.0888 56.1072C54.5753 52.4532 54.0242 47.8521 55.1862 48.5702C56.5887 49.437 60.0258 56.7093 60.0258 58.81C60.0258 60.2182 62.0059 58.7545 67.4044 53.3561C74.2762 46.4843 77.0063 44.65 77.0063 46.9049C77.0063 47.4151 76.361 48.4777 75.5722 49.2665C74.4609 50.3778 74.4047 50.989 75.3223 51.982C76.2597 52.9962 76.1421 53.1351 74.7587 52.6484C73.6486 52.2578 73.0107 52.5294 73.0107 53.3933C73.0107 54.1414 72.308 55.0231 71.4491 55.3527C70.5902 55.6823 70.1673 56.4045 70.5092 56.9578C70.8512 57.5111 70.6851 57.9637 70.1404 57.9637C69.5956 57.9637 68.8567 58.8874 68.4984 60.0164C68.1401 61.1454 67.3391 61.8998 66.7183 61.6929C65.7087 61.3562 61.0244 65.9487 61.0244 67.275C61.0244 67.5679 63.6297 66.4639 66.8138 64.8217C78.3561 58.8689 96.3528 60.3489 104.974 67.96C107.094 69.8313 107.611 70.634 106.288 69.9988C103.166 68.4994 102.537 68.6993 104.085 70.6991C105.375 72.3639 105.341 72.3639 103.38 70.6991C100.665 68.3941 99.9829 68.4938 99.9645 71.1986C99.9532 72.9075 99.7353 73.108 99.0563 72.0354C98.3567 70.9302 98.0898 71.0972 97.8231 72.807L97.4825 74.989L93.7368 72.4335C89.9939 69.8799 89.9911 69.8796 89.9911 72.0666C89.9911 74.1613 89.9088 74.1807 88.0737 72.5198C86.237 70.8577 86.1423 70.8827 85.8262 73.1142C85.5246 75.2435 85.2816 75.1004 82.9991 71.4483C80.7172 67.7972 80.4736 67.6535 80.1721 69.7816C79.866 71.9433 79.7497 71.9838 78.5507 70.344C77.3468 68.6976 77.2084 68.7377 76.511 70.9348L75.7629 73.292L74.4221 70.8718C73.3425 68.9231 73.0745 68.8037 73.046 70.2587C73.0233 71.4403 72.5809 71.8001 71.7691 71.2983C71.0863 70.8763 68.7264 70.3973 66.5251 70.2337L62.5226 69.9362L67.7696 72.3956C75.1204 75.8411 81.9965 83.1018 86.3098 91.9725C91.1704 101.969 91.7027 104.431 89.0462 104.631C87.8758 104.72 86.9946 104.182 86.9946 103.381C86.9946 102.498 86.3952 102.206 85.3801 102.596C84.0171 103.119 83.9393 102.89 84.8806 101.132C86.526 98.0574 86.2551 97.623 83.7758 99.3596C80.5458 101.622 79.7251 101.268 81.5927 98.4174C83.1657 96.0168 83.1446 95.9202 81.049 95.9202C79.3237 95.9202 79.0013 95.5036 79.5031 93.9225C80.0263 92.2741 79.6828 91.9247 77.5376 91.9247C75.1982 91.9247 75.0515 91.7126 76.0717 89.8065C76.9664 88.1347 76.938 87.8535 75.9369 88.4721C75.0707 89.0074 74.848 88.7885 75.2343 87.782C75.6784 86.6245 75.1251 86.404 72.6572 86.755L69.5144 87.202L71.4173 85.0686C73.0981 83.1839 73.1272 82.935 71.6668 82.935C70.7576 82.935 70.0137 82.2343 70.0137 81.3778C70.0137 80.5213 69.5642 80.0984 69.0149 80.4379C68.4496 80.7871 68.016 79.9593 68.016 78.5305C68.016 76.6967 67.606 76.1631 66.5177 76.5807C65.6937 76.8971 65.0194 76.6316 65.0194 75.991C65.0194 75.3504 64.5779 75.0992 64.0382 75.4328C63.466 75.7865 64.0609 77.5804 65.4698 79.7368C68.2619 84.0157 71.2925 94.9295 70.757 98.7767L70.3901 101.414L68.8868 98.151C68.06 96.3564 67.09 95.1816 66.7312 95.5404C66.3725 95.899 66.253 94.8169 66.4658 93.1352C66.7199 91.1272 66.3635 89.8899 65.4275 89.5308C64.6435 89.2299 64.0596 88.6342 64.1297 88.2069C64.1999 87.7796 64.1486 87.0928 64.0142 86.6808C63.8806 86.2688 63.6586 85.4821 63.5214 84.9327C63.3839 84.3833 63.1593 83.7091 63.0219 83.4344C62.8845 83.1596 62.6761 82.5979 62.5586 82.1859C62.4412 81.7739 61.8152 80.3131 61.1674 78.9396C60.2174 76.9251 60.1016 78.5655 60.5685 87.4299C61.1466 98.4043 63.3102 111.621 64.7546 113.002C65.7213 113.926 82.0281 109.81 87.9933 107.136C98.9404 102.23 111.617 97.6723 118.254 96.2573C131.785 93.3726 150.532 96.3992 162.471 103.395C166.772 105.916 167.066 106.343 166.489 109.227C165.62 113.573 164.515 114.344 161.749 112.532C154.418 107.729 137.256 105.192 123.583 106.891C118.86 107.478 113.977 108.389 112.732 108.915C111.068 109.618 111.528 109.68 114.463 109.149C129.515 106.428 148.57 110.844 158.756 119.415C161.851 122.019 161.865 122.074 160.256 125.213C159.362 126.957 157.317 130.303 155.712 132.65L152.792 136.917L147.612 132.336C144.762 129.816 138.386 125.795 133.441 123.401C121.322 117.533 111.588 115.478 95.9842 115.493C84.6644 115.504 70.3306 117.138 67.3446 118.758C65.6473 119.679 71.3605 131.494 79.0383 142.942C87.0193 154.841 91.4991 160.268 96.2423 163.781L99.9964 166.562L94.426 167.217C91.3623 167.577 88.406 167.593 87.8566 167.254C87.3071 166.914 84.1151 163.199 80.7631 158.997C74.7142 151.414 67.0025 136.657 63.5398 126.039C61.5109 119.817 62.9938 119.918 44.7253 124.757C30.758 128.457 22.6649 128.866 21.1051 125.952C20.5364 124.889 20.0703 123.878 20.0693 123.704C20.0683 123.531 22.8329 123.545 26.2129 123.735C29.5928 123.925 34.8751 123.72 37.9512 123.282C43.4542 122.496 43.3754 122.472 33.0562 121.813C18.743 120.898 17.7718 120.337 15.2786 111.543C14.1662 107.62 13.0251 103.366 12.7428 102.091C12.251 99.8681 12.3206 99.8381 14.4023 101.373C23.2343 107.887 41.7794 113.899 53.0391 113.899H59.7172L58.2597 106.658C57.4582 102.675 56.7423 94.1347 56.6691 87.6796C56.5305 75.4779 55.8893 73.9432 52.3912 77.4412C51.5672 78.2653 51.2048 78.9395 51.586 78.9395C51.9672 78.9395 51.7359 79.594 51.0719 80.394C50.408 81.194 50.1548 82.3178 50.5092 82.8912C50.8637 83.4646 50.479 83.9338 49.6537 83.9338C48.6915 83.9338 48.2917 84.6499 48.5385 85.9315C48.7896 87.2353 48.3856 87.9292 47.3754 87.9292C46.41 87.9292 46.0439 88.493 46.4026 89.4275C46.7492 90.3311 46.4064 90.9259 45.542 90.9259C44.6133 90.9259 44.3316 91.5127 44.7442 92.5879C45.173 93.7055 44.999 94.0135 44.2134 93.5279C43.5051 93.0901 43.0448 93.4421 43.0448 94.4218C43.0448 95.3107 42.6337 95.7839 42.1313 95.4734C41.6288 95.1627 41.0161 95.4734 40.7697 96.1635C40.5232 96.8537 40.0043 97.125 39.6163 96.7664C38.1707 95.4305 41.6647 87.2251 46.2727 81.134C48.8923 77.6714 51.0356 74.6402 51.0356 74.3981C51.0356 73.0382 46.5706 74.933 46.0089 76.5313C45.3964 78.2741 45.2712 78.2297 44.5688 76.02L43.7994 73.5998L42.5454 75.9429L41.2913 78.286L40.4936 75.8659L39.6958 73.4458L38.9727 75.9429L38.2497 78.4401L38.1349 75.9429C38.0432 73.9501 37.8246 73.7484 37.0518 74.944C36.5192 75.7681 36.0766 77.6519 36.0682 79.1302C36.0493 82.4742 34.4193 83.658 33.5604 80.9517C32.7266 78.3245 31.6223 78.4037 30.28 81.1869C29.4171 82.9763 29.1824 83.078 29.1285 81.6864C29.027 79.058 27.4991 79.5691 24.6495 83.1847C22.1127 86.4035 22.0908 86.4099 22.0482 83.9338C22.0067 81.5223 21.955 81.5031 20.5389 83.3756C19.2601 85.0663 19.0724 85.0983 19.0724 83.6251C19.0724 81.4267 17.4515 81.4593 16.1558 83.684C15.2603 85.2215 15.134 85.1427 15.1074 83.0297C15.0772 80.645 15.0609 80.6413 12.8904 82.5303C10.7534 84.39 10.7561 84.358 13.0089 81.1161C14.2767 79.2917 18.2946 75.8281 21.9378 73.4192C29.5077 68.414 37.4028 66.6029 47.1918 67.626C52.3389 68.164 53.0336 68.0269 53.0336 66.4737C53.0336 65.0931 52.7365 64.9574 51.6634 65.848C50.5661 66.7586 50.1737 66.3878 49.6934 63.9868C49.1451 61.2448 48.8755 61.0713 46.5413 61.9587C44.2163 62.8427 44.0803 62.7584 45.0152 61.0115C46.5375 58.1671 46.2862 57.7659 43.7942 59.0628C41.5919 60.2088 41.5954 60.1794 43.9682 57.5996C45.3 56.1517 46.199 54.9717 45.9659 54.9777C45.7326 54.9852 43.338 55.6572 40.6442 56.4744L35.7463 57.9602L37.6476 55.8283L39.5489 53.6964L36.3047 54.1584C33.2841 54.5885 33.1681 54.5012 34.6221 52.8947C36.0721 51.2924 35.8935 51.1202 32.1229 50.4831C27.5392 49.7087 27.364 49.4192 29.8101 46.6596C31.5167 44.7344 31.499 44.7181 29.061 45.9771L26.5638 47.2667L28.4667 45.1237L30.3695 42.9806H27.0272C23.8739 42.9806 23.7945 42.8976 25.6238 41.5141C27.2881 40.2553 27.3278 40.0431 25.9043 40.0158C23.931 39.9781 17.2765 50.1527 13.7635 58.579C5.66637 78.0012 5.97741 103.963 14.5381 123.23C24.4557 145.552 45.2937 163.427 68.4169 169.447C82.275 173.055 94.8918 173.164 109.566 169.801L109.566 169.801ZM116.199 147.361C116.459 143.394 116.433 143.362 112.466 142.866C108.126 142.324 108.569 141.511 113.819 140.384C116.878 139.728 117.119 139.413 116.59 136.771C115.906 133.346 117.233 133.001 119.368 136.05C120.698 137.948 121.215 138.075 123.467 137.049C127.598 135.166 128.478 135.68 125.875 138.455L123.453 141.036L126.315 143.501C129.9 146.588 129.185 147.439 124.445 145.725C121.314 144.592 120.672 144.615 119.944 145.883C119.477 146.696 118.384 148.26 117.516 149.359C116.012 151.261 115.949 151.164 116.199 147.361V147.361ZM125.994 69.3673C125.972 67.124 125.67 65.0084 125.328 64.6659C124.985 64.3235 123.122 65.2502 121.188 66.7253L117.672 69.4073L119.386 66.0925C122.025 60.99 120.992 59.685 115.772 61.5267L111.501 63.0334L114.891 59.5361L118.281 56.0388L115.558 55.0035C114.06 54.4342 111.853 53.9337 110.653 53.8915C109.253 53.8424 109.874 53.3912 112.386 52.6334C117.483 51.0955 117.879 49.5045 113.788 47.0099L110.468 44.9861L114.713 44.9824C117.742 44.9797 118.958 44.5661 118.958 43.5393C118.958 42.7476 118.511 41.8236 117.965 41.4859C117.418 41.1484 116.489 39.9707 115.899 38.8693C114.86 36.9279 114.92 36.9143 117.842 38.4255C122.608 40.89 123.287 40.5109 122.651 35.7392L122.086 31.4941L124.866 34.8927C127.817 38.5005 129.935 38.4127 129.961 34.6813C129.968 33.4776 130.412 31.8185 130.944 30.9945C131.709 29.8121 131.916 30.0352 131.928 32.0522C131.936 33.4579 132.541 35.4249 133.271 36.4232C134.514 38.124 134.77 38.0259 137.334 34.8662L140.07 31.4939L139.415 35.7391C138.671 40.5611 140.036 41.2726 144.464 38.371C147.17 36.598 147.735 37.43 145.507 39.9056C142.689 43.0357 143.212 44.4224 147.426 44.9871L151.421 45.5228L148.06 47.3334C144.252 49.3846 144.8 50.7186 150.202 52.5542L153.391 53.6374L149.16 54.3141C144.002 55.1388 143.724 56.8599 148.175 60.4022L151.421 62.9857L147.242 61.5411C142.105 59.7655 140.315 61.0499 142.478 64.9586C144.69 68.9555 144.15 69.536 141.014 66.5316C137.402 63.0708 135.954 63.8412 135.887 69.2597L135.836 73.4458L134.282 69.7001C133.428 67.64 132.113 65.9544 131.361 65.9544C130.609 65.9544 129.104 67.64 128.016 69.7001L126.039 73.4458L125.994 69.3672L125.994 69.3673ZM70.1629 37.3082C71.1892 36.0716 70.6088 35.0984 66.71 31.5187C64.1324 29.1521 62.0235 26.7061 62.0235 26.083C62.0235 24.4137 66.9333 27.2055 70.3866 30.8384C72.237 32.785 74.7202 34.1127 77.3786 34.577L81.5012 35.2969L78.5046 36.2141C76.8565 36.7186 74.0278 37.5057 72.2187 37.963C69.3697 38.6832 69.0945 38.5956 70.1629 37.3082ZM86.0051 24.4912C86.8455 23.4785 86.2761 22.5155 83.5512 20.3412C81.5997 18.7841 80.0029 17.1729 80.0029 16.7609C80.0029 15.3053 81.8854 16.044 85.0941 18.7587C86.8798 20.2694 89.4927 21.9858 90.9004 22.5727C93.4151 23.6211 93.3849 23.6589 89.1853 24.7249C85.6697 25.6172 85.1049 25.5757 86.0051 24.4912V24.4912Z" fill="black" stroke="black" stroke-width="0.265"/>
</svg>
